<?xml version="1.0" standalone="no"?><!DOCTYPE svg PUBLIC "-//W3C//DTD SVG 1.1//EN" "http://www.w3.org/Graphics/SVG/1.1/DTD/svg11.dtd"><svg t="1703492215814" class="icon" viewBox="0 0 1024 1024" version="1.1" xmlns="http://www.w3.org/2000/svg" p-id="4259" xmlns:xlink="http://www.w3.org/1999/xlink" width="200" height="200"><path d="M49.066667 938.666667c-8.533333-12.8-8.533333-29.866667 0-42.666667L341.333333 388.266667V149.333333h-21.333333c-23.466667 0-42.666667-19.2-42.666667-42.666666s19.2-42.666667 42.666667-42.666667h384c23.466667 0 42.666667 19.2 42.666667 42.666667s-19.2 42.666667-42.666667 42.666666h-21.333333v238.933334L974.933333 896c8.533333 12.8 8.533333 29.866667 0 42.666667-8.533333 12.8-21.333333 21.333333-36.266666 21.333333H85.333333c-14.933333 0-29.866667-8.533333-36.266666-21.333333z m234.666666-279.466667L160 874.666667h706.133333L746.666667 672c-14.933333-4.266667-27.733333-8.533333-38.4-12.8-23.466667-10.666667-44.8-19.2-89.6-19.2s-66.133333 8.533333-91.733334 19.2c-27.733333 10.666667-59.733333 23.466667-121.6 23.466667-59.733333 0-93.866667-12.8-121.6-23.466667z m136.533334-236.8l-93.866667 162.133333c19.2 8.533333 40.533333 12.8 78.933333 12.8 44.8 0 66.133333-8.533333 91.733334-19.2 27.733333-10.666667 61.866667-23.466667 121.6-23.466666 25.6 0 46.933333 2.133333 64 6.4l-81.066667-138.666667c-4.266667-6.4-6.4-12.8-6.4-21.333333V149.333333h-170.666667v251.733334c2.133333 6.4 0 14.933333-4.266666 21.333333z" fill="#2F3CF4" p-id="4260"></path></svg>